Coordinates
version=1
nRows=21
nColumns=33
inDegrees=yes

Units are S.I. units (second, meters, Newtons, ...)
Angles are in degrees.

endheader
time	ground_thorax_rot_x	ground_thorax_rot_y	ground_thorax_rot_z	ground_thorax_tx	ground_thorax_ty	ground_thorax_tz	clav_prot_r	clav_elev_r	scapula_abduction_r	scapula_elevation_r	scapula_upward_rot_r	scapula_winging_r	shoulder_elv_r	plane_of_elev_r	axial_rot_r	elbow_flexion_r	pro_sup_r	wrist_flex_r	wrist_dev_r	clav_prot_l	clav_elev_l	scapula_abduction_l	scapula_elevation_l	scapula_upward_rot_l	scapula_winging_l	shoulder_elv_l	plane_of_elev_l	axial_rot_l	elbow_flexion_l	pro_sup_l	wrist_flex_l	wrist_dev_l
      8.45000000	     37.01326569	     10.35086358	     11.63884098	    -98.79980003	    774.72681823	      8.16607268	     10.79684654	     38.73021278	     45.00000000	     36.94400495	     -7.98003176	  -2613.58292119	  -3181.49174664	     29.32934775	     59.72613414	   1450.42164555	     27.66963070	     18.42160281	     10.72048220	      5.07544632	    -45.00000000	    -45.00000000	     45.00000000	    -24.30181171	    449.19470006	    -99.94865639	    137.84239841	    159.13210976	   -352.09137247	     25.49548081	      7.95870394	    -19.14609040
      8.46000000	     37.21809507	     10.62918992	     11.85405116	   -100.54287023	    775.44985281	      7.88265850	     10.75017260	     38.91023151	     45.00000000	     37.52869284	     -8.34962558	  -2613.27759802	  -3181.47655870	     28.94083176	     59.53640822	   1450.41424080	     27.72544984	     18.29776706	     10.31395695	      5.17486112	    -45.00000000	    -44.97530718	     45.00000000	    -24.65121553	    449.48683154	   -100.15180624	    137.82605526	    159.06369598	   -351.95793231	     25.22266207	      7.98068456	    -19.16266209
      8.47000000	     37.36718134	     10.79178587	     11.98917488	   -102.35153412	    776.22512943	      7.60677433	     11.01328142	     39.25015407	     45.00000000	     37.82125054	     -8.72940625	  -2613.40918361	  -3181.44509939	     29.08896768	     59.18164976	   1450.51989145	     27.76884782	     18.40062913	     10.32062415	      5.12906198	    -45.00000000	    -44.61356630	     45.00000000	    -25.14846567	    449.53107299	   -100.00675100	    137.85778672	    159.06175942	   -351.75009402	     24.92646539	      7.83425257	    -19.18924919
      8.48000000	     37.45653547	     10.84553903	     12.03889152	   -104.21641572	    777.04852167	      7.33960897	     11.07540181	     39.21089797	     45.00000000	     37.99807868	     -9.04835257	  -2613.38673765	  -3181.27879886	     29.18194706	     58.91460977	   1450.62014910	     27.80934153	     18.42676761	     10.19389430	      5.04578915	    -45.00000000	    -44.27605478	     45.00000000	    -25.64018000	    449.60883015	    -99.77269511	    137.76481626	    159.02794158	   -351.62781530	     24.69316472	      7.80569716	    -19.22858715
      8.49000000	     37.62679513	     11.11757727	     12.23959949	   -106.13578611	    777.91821119	      7.08217976	     11.24688112	     39.54945823	     45.00000000	     38.40101091	     -9.62952501	  -2613.34424457	  -3181.21653331	     29.21948319	     58.66154124	   1450.67171606	     27.86738578	     18.46845134	     10.13848530	      5.07575351	    -45.00000000	    -43.91722170	     45.00000000	    -26.18713790	    449.61500125	    -99.71396369	    137.79410401	    159.06965677	   -351.52863879	     24.46423318	      7.70095320	    -19.23804721
      8.50000000	     37.78272472	     11.24121867	     12.42022699	   -108.10859177	    778.83295744	      6.83474315	     11.40748961	     39.61490072	     45.00000000	     38.71507323	    -10.08099442	  -2613.31607173	  -3181.12381677	     29.27234714	     58.38572409	   1450.75693102	     27.90853370	     18.51436729	     10.05576327	      5.00138572	    -45.00000000	    -43.46282810	     45.00000000	    -26.86664770	    449.65086544	    -99.53712655	    137.75705560	    159.06272840	   -351.38900850	     24.26915751	      7.61814031	    -19.28106503
      8.51000000	     37.84222563	     11.30208955	     12.27761811	   -110.13136093	    779.79025198	      6.59787451	     11.51889236	     39.74456964	     45.00000000	     38.81882657	    -10.42591599	  -2613.33426292	  -3180.89409014	     29.45629106	     58.18526455	   1450.76243080	     27.95695940	     18.55555774	      9.99899775	      4.87722706	    -45.00000000	    -43.17233853	     45.00000000	    -27.39675942	    449.62253718	    -99.04695819	    137.50036603	    158.93387461	   -351.36237140	     24.13613987	      7.58038899	    -19.32135187
      8.52000000	     38.07065702	     11.54473869	     12.65406721	   -112.20198997	    780.78796234	      6.37240883	     11.68971461	     40.09705143	     45.00000000	     39.33276034	    -11.04223209	  -2613.24052510	  -3180.90010535	     29.47336378	     57.93258915	   1450.92648565	     27.98144517	     18.58597094	      9.87896335	      4.94247535	    -45.00000000	    -42.75012054	     45.00000000	    -27.95509540	    449.71576115	    -99.17938615	    137.72864519	    159.04069868	   -351.17800535	     23.97346179	      7.46674643	    -19.34980862
      8.53000000	     38.27687270	     12.29905194	     13.74124521	   -114.32429073	    781.82664508	      6.15870519	     12.57153698	     41.24453625	     45.00000000	     40.10594066	    -13.62870110	  -2612.77907064	  -3180.70909479	     29.86389106	     56.95050351	   1451.08896701	     27.95054311	     18.55481041	      9.67686973	      5.50107302	    -45.00000000	    -41.77097045	     45.00000000	    -30.15504496	    449.41120422	    -98.94709061	    137.78155742	    159.50485152	   -351.15708102	     23.68804675	      7.46042828	    -19.31302424
      8.54000000	     38.41662753	     12.11549925	     13.35858156	   -116.48964657	    782.90574130	      5.95844525	     12.33368442	     39.86492976	     45.00000000	     40.16860149	    -12.85263810	  -2612.81406342	  -3180.53634507	     29.62243912	     56.58156328	   1450.97686228	     28.01135728	     18.73293871	      9.90679541	      4.56504296	    -45.00000000	    -41.30643589	     45.00000000	    -30.50543500	    449.51522376	    -98.50844535	    137.34928893	    159.39221966	   -351.03078600	     23.57042664	      7.27748378	    -19.43722619
      8.55000000	     38.59296233	     12.19084587	     13.39601127	   -118.71002746	    784.02758312	      5.77112666	     12.49281904	     40.99358637	     45.00000000	     40.50164905	    -13.43984914	  -2612.91991496	  -3180.53429245	     29.85516006	     56.45680261	   1451.14763659	     28.00081963	     18.68133858	      9.61446113	      4.84048193	    -45.00000000	    -41.10649074	     45.00000000	    -30.71395848	    449.60457786	    -98.52930573	    137.50503528	    159.47593773	   -350.87139556	     23.46988624	      7.29100557	    -19.46944544
      8.56000000	     38.80154417	     12.64495706	     13.98748203	   -120.97897269	    785.18909791	      5.59713266	     13.06999859	     41.83719284	     45.00000000	     41.16018803	    -15.17212996	  -2612.59722894	  -3180.39694400	     30.17882904	     55.81238491	   1451.26739598	     27.93181452	     18.66659767	      9.45500835	      5.24003792	    -45.00000000	    -40.55882798	     45.00000000	    -32.07022556	    449.47260281	    -98.26679238	    137.60746504	    159.57512828	   -350.77812165	     23.28355399	      7.26310269	    -19.47979376
      8.57000000	     38.91825509	     12.69076226	     14.08057426	   -123.29778724	    786.39224148	      5.43413544	     12.96172701	     41.44210391	     45.00000000	     41.32183703	    -15.29456125	  -2612.58207797	  -3180.16691346	     30.14621220	     55.42450591	   1451.35137555	     27.89040668	     18.74583311	      9.49265613	      4.85409630	    -45.00000000	    -40.18827951	     45.00000000	    -32.37993332	    449.65490236	    -98.13897790	    137.56507487	    159.77101834	   -350.70375016	     23.11477922	      7.12995068	    -19.52877844
      8.58000000	     39.08268273	     12.98421535	     14.27670885	   -125.66931567	    787.63580885	      5.28019719	     13.41485808	     42.10587575	     44.95907873	     41.80307409	    -16.46233171	  -2612.42142834	  -3180.06933417	     30.36869922	     54.99390632	   1451.41618891	     27.75753996	     18.72904945	      9.34346028	      5.09890475	    -45.00000000	    -39.75619810	     45.00000000	    -33.34388051	    449.58029682	    -97.85232451	    137.51417895	    159.80233734	   -350.56794414	     22.92497691	      7.13943686	    -19.57505900
      8.59000000	     39.15161448	     12.98142643	     14.28371600	   -128.10697123	    788.92424464	      5.12583236	     13.27327391	     41.82776908	     44.71695579	     41.92430098	    -16.48349297	  -2612.30602509	  -3179.82494171	     30.45336362	     54.60966815	   1451.52427062	     27.60418133	     18.79928564	      9.33084360	      4.85279030	    -45.00000000	    -39.55817212	     45.00000000	    -33.54258048	    449.81233804	    -97.70601350	    137.51405580	    159.83614736	   -350.49058288	     22.75337512	      7.03320947	    -19.63642249
      8.60000000	     39.28431186	     15.55159589	     17.48285231	   -130.60214371	    790.25229404	      4.97345952	     15.02041918	     42.08530816	     42.77044410	     43.96522287	    -22.38743987	  -2609.53976768	  -3178.99488499	     31.41371290	     51.25946957	   1451.51354969	     26.52550004	     18.80019928	      9.28756708	      5.40465061	    -45.00000000	    -37.13636099	     45.00000000	    -39.74595102	    449.26698432	    -96.79819442	    137.14937405	    159.81775361	   -350.42321944	     22.08074279	      6.93652920	    -19.63756325
      8.61000000	     39.44914835	     14.65789984	     16.18977248	   -133.12208546	    791.61507788	      4.83060641	     14.38676292	     42.38845248	     42.96997072	     43.76804329	    -21.05594449	  -2610.03279227	  -3179.06186427	     31.40623556	     51.36109963	   1451.60414235	     26.42199889	     18.80336607	      9.22618687	      5.13615069	    -45.00000000	    -37.92668374	     45.00000000	    -37.74895500	    449.60351583	    -96.97056109	    137.31064227	    159.93865061	   -350.29707980	     21.94368360	      7.05366179	    -19.73357714
      8.62000000	     39.49999200	     16.00102542	     17.82761717	   -135.63629609	    792.99695253	      4.70981626	     15.07292237	     42.28437552	     42.11201515	     44.81774375	    -23.92223211	  -2608.91250724	  -3178.53353061	     31.89105767	     50.02090080	   1451.61904872	     25.66299748	     18.80617216	      9.14907677	      5.55373470	    -45.00000000	    -36.72720984	     45.00000000	    -40.83363929	    449.62305864	    -96.44743014	    137.11092207	    159.56956316	   -350.22398126	     21.43021321	      6.83624368	    -19.72332356
      8.63000000	     39.69827451	     15.22979772	     16.66476728	   -138.12847837	    794.39825641	      4.61098973	     14.66236567	     42.79214842	     42.26081369	     44.68754943	    -22.63419833	  -2609.31136574	  -3178.56979949	     31.75866098	     50.11601562	   1451.69350258	     25.51662883	     18.81241792	      9.03967341	      5.41018723	    -45.00000000	    -37.38796991	     45.00000000	    -39.09787287	    449.89584500	    -96.55819948	    137.25074310	    159.66245355	   -350.12626435	     21.22211944	      6.98480063	    -19.81089764
      8.64000000	     39.83548835	     15.05460354	     16.30737599	   -140.58434283	    795.81206133	      4.53510546	     14.49613822	     43.05510438	     42.23531599	     44.81233735	    -22.33094334	  -2609.49508371	  -3178.52976478	     31.78664996	     50.27913692	   1451.75517700	     25.36543841	     18.83051896	      8.93175225	      5.38042004	    -45.00000000	    -37.54750651	     45.00000000	    -38.66344984	    450.09725192	    -96.51781245	    137.37670727	    159.60862088	   -350.02258406	     20.94738621	      6.96685365	    -19.86286278
      8.65000000	     39.93927015	     15.07984927	     16.23610117	   -143.01400119	    797.24159959	      4.47347898	     14.49718869	     43.14583691	     42.10743889	     45.00000000	    -22.57611455	  -2609.46230495	  -3178.34823186	     31.89737509	     49.95373940	   1451.80490318	     25.17155440	     18.86735952	      8.82809747	      5.43914569	    -45.00000000	    -37.47132538	     45.00000000	    -38.97012731	    450.29933517	    -96.27815075	    137.31994110	    159.51444552	   -349.91452540	     20.58537971	      6.94975004	    -19.91568093
